<svg height="2782" width="720" xmlns="http://www.w3.org/2000/svg">
<rect height="2782" fill="#555" width="720"></rect>
<text fill="#7f7" font-family="Courier New" font-size="12" xml:space="preserve">
<tspan x="10" y="26">64 megabytes installed</tspan>
<tspan x="10" y="42"></tspan>
<tspan x="10" y="58">node_modules</tspan>
<tspan x="10" y="74">└─┬ grpc@1.2.4 </tspan>
<tspan x="10" y="90">  ├── arguejs@0.2.3 </tspan>
<tspan x="10" y="106">  ├── lodash@4.17.4 </tspan>
<tspan x="10" y="122">  ├── nan@2.6.2 </tspan>
<tspan x="10" y="138">  ├─┬ node-pre-gyp@0.6.34 </tspan>
<tspan x="10" y="154">  │ ├─┬ mkdirp@0.5.1 </tspan>
<tspan x="10" y="170">  │ │ └── minimist@0.0.8 </tspan>
<tspan x="10" y="186">  │ ├─┬ nopt@4.0.1 </tspan>
<tspan x="10" y="202">  │ │ ├── abbrev@1.1.0 </tspan>
<tspan x="10" y="218">  │ │ └─┬ osenv@0.1.4 </tspan>
<tspan x="10" y="234">  │ │   ├── os-homedir@1.0.2 </tspan>
<tspan x="10" y="250">  │ │   └── os-tmpdir@1.0.2 </tspan>
<tspan x="10" y="266">  │ ├─┬ npmlog@4.0.2 </tspan>
<tspan x="10" y="282">  │ │ ├─┬ are-we-there-yet@1.1.2 </tspan>
<tspan x="10" y="298">  │ │ │ ├── delegates@1.0.0 </tspan>
<tspan x="10" y="314">  │ │ │ └─┬ readable-stream@2.2.9 </tspan>
<tspan x="10" y="330">  │ │ │   ├── buffer-shims@1.0.0 </tspan>
<tspan x="10" y="346">  │ │ │   ├── core-util-is@1.0.2 </tspan>
<tspan x="10" y="362">  │ │ │   ├── inherits@2.0.3 </tspan>
<tspan x="10" y="378">  │ │ │   ├── isarray@1.0.0 </tspan>
<tspan x="10" y="394">  │ │ │   ├── process-nextick-args@1.0.7 </tspan>
<tspan x="10" y="410">  │ │ │   ├── string_decoder@1.0.0 </tspan>
<tspan x="10" y="426">  │ │ │   └── util-deprecate@1.0.2 </tspan>
<tspan x="10" y="442">  │ │ ├── console-control-strings@1.1.0 </tspan>
<tspan x="10" y="458">  │ │ ├─┬ gauge@2.7.3 </tspan>
<tspan x="10" y="474">  │ │ │ ├── aproba@1.1.1 </tspan>
<tspan x="10" y="490">  │ │ │ ├── has-unicode@2.0.1 </tspan>
<tspan x="10" y="506">  │ │ │ ├── object-assign@4.1.1 </tspan>
<tspan x="10" y="522">  │ │ │ ├── signal-exit@3.0.2 </tspan>
<tspan x="10" y="538">  │ │ │ ├─┬ string-width@1.0.2 </tspan>
<tspan x="10" y="554">  │ │ │ │ ├── code-point-at@1.1.0 </tspan>
<tspan x="10" y="570">  │ │ │ │ └─┬ is-fullwidth-code-point@1.0.0 </tspan>
<tspan x="10" y="586">  │ │ │ │   └── number-is-nan@1.0.1 </tspan>
<tspan x="10" y="602">  │ │ │ ├─┬ strip-ansi@3.0.1 </tspan>
<tspan x="10" y="618">  │ │ │ │ └── ansi-regex@2.1.1 </tspan>
<tspan x="10" y="634">  │ │ │ └── wide-align@1.1.0 </tspan>
<tspan x="10" y="650">  │ │ └── set-blocking@2.0.0 </tspan>
<tspan x="10" y="666">  │ ├─┬ rc@1.2.1 </tspan>
<tspan x="10" y="682">  │ │ ├── deep-extend@0.4.1 </tspan>
<tspan x="10" y="698">  │ │ ├── ini@1.3.4 </tspan>
<tspan x="10" y="714">  │ │ ├── minimist@1.2.0 </tspan>
<tspan x="10" y="730">  │ │ └── strip-json-comments@2.0.1 </tspan>
<tspan x="10" y="746">  │ ├─┬ request@2.81.0 </tspan>
<tspan x="10" y="762">  │ │ ├── aws-sign2@0.6.0 </tspan>
<tspan x="10" y="778">  │ │ ├── aws4@1.6.0 </tspan>
<tspan x="10" y="794">  │ │ ├── caseless@0.12.0 </tspan>
<tspan x="10" y="810">  │ │ ├─┬ combined-stream@1.0.5 </tspan>
<tspan x="10" y="826">  │ │ │ └── delayed-stream@1.0.0 </tspan>
<tspan x="10" y="842">  │ │ ├── extend@3.0.0 </tspan>
<tspan x="10" y="858">  │ │ ├── forever-agent@0.6.1 </tspan>
<tspan x="10" y="874">  │ │ ├─┬ form-data@2.1.4 </tspan>
<tspan x="10" y="890">  │ │ │ └── asynckit@0.4.0 </tspan>
<tspan x="10" y="906">  │ │ ├─┬ har-validator@4.2.1 </tspan>
<tspan x="10" y="922">  │ │ │ ├─┬ ajv@4.11.6 </tspan>
<tspan x="10" y="938">  │ │ │ │ ├── co@4.6.0 </tspan>
<tspan x="10" y="954">  │ │ │ │ └─┬ json-stable-stringify@1.0.1 </tspan>
<tspan x="10" y="970">  │ │ │ │   └── jsonify@0.0.0 </tspan>
<tspan x="10" y="986">  │ │ │ └── har-schema@1.0.5 </tspan>
<tspan x="10" y="1002">  │ │ ├─┬ hawk@3.1.3 </tspan>
<tspan x="10" y="1018">  │ │ │ ├── boom@2.10.1 </tspan>
<tspan x="10" y="1034">  │ │ │ ├── cryptiles@2.0.5 </tspan>
<tspan x="10" y="1050">  │ │ │ ├── hoek@2.16.3 </tspan>
<tspan x="10" y="1066">  │ │ │ └── sntp@1.0.9 </tspan>
<tspan x="10" y="1082">  │ │ ├─┬ http-signature@1.1.1 </tspan>
<tspan x="10" y="1098">  │ │ │ ├── assert-plus@0.2.0 </tspan>
<tspan x="10" y="1114">  │ │ │ ├─┬ jsprim@1.4.0 </tspan>
<tspan x="10" y="1130">  │ │ │ │ ├── assert-plus@1.0.0 </tspan>
<tspan x="10" y="1146">  │ │ │ │ ├── extsprintf@1.0.2 </tspan>
<tspan x="10" y="1162">  │ │ │ │ ├── json-schema@0.2.3 </tspan>
<tspan x="10" y="1178">  │ │ │ │ └── verror@1.3.6 </tspan>
<tspan x="10" y="1194">  │ │ │ └─┬ sshpk@1.11.0 </tspan>
<tspan x="10" y="1210">  │ │ │   ├── asn1@0.2.3 </tspan>
<tspan x="10" y="1226">  │ │ │   ├── assert-plus@1.0.0 </tspan>
<tspan x="10" y="1242">  │ │ │   ├── bcrypt-pbkdf@1.0.1 </tspan>
<tspan x="10" y="1258">  │ │ │   ├── dashdash@1.14.1 </tspan>
<tspan x="10" y="1274">  │ │ │   ├── ecc-jsbn@0.1.1 </tspan>
<tspan x="10" y="1290">  │ │ │   ├── getpass@0.1.6 </tspan>
<tspan x="10" y="1306">  │ │ │   ├── jodid25519@1.0.2 </tspan>
<tspan x="10" y="1322">  │ │ │   ├── jsbn@0.1.1 </tspan>
<tspan x="10" y="1338">  │ │ │   └── tweetnacl@0.14.5 </tspan>
<tspan x="10" y="1354">  │ │ ├── is-typedarray@1.0.0 </tspan>
<tspan x="10" y="1370">  │ │ ├── isstream@0.1.2 </tspan>
<tspan x="10" y="1386">  │ │ ├── json-stringify-safe@5.0.1 </tspan>
<tspan x="10" y="1402">  │ │ ├─┬ mime-types@2.1.15 </tspan>
<tspan x="10" y="1418">  │ │ │ └── mime-db@1.27.0 </tspan>
<tspan x="10" y="1434">  │ │ ├── oauth-sign@0.8.2 </tspan>
<tspan x="10" y="1450">  │ │ ├── performance-now@0.2.0 </tspan>
<tspan x="10" y="1466">  │ │ ├── qs@6.4.0 </tspan>
<tspan x="10" y="1482">  │ │ ├── safe-buffer@5.0.1 </tspan>
<tspan x="10" y="1498">  │ │ ├── stringstream@0.0.5 </tspan>
<tspan x="10" y="1514">  │ │ ├─┬ tough-cookie@2.3.2 </tspan>
<tspan x="10" y="1530">  │ │ │ └── punycode@1.4.1 </tspan>
<tspan x="10" y="1546">  │ │ ├── tunnel-agent@0.6.0 </tspan>
<tspan x="10" y="1562">  │ │ └── uuid@3.0.1 </tspan>
<tspan x="10" y="1578">  │ ├─┬ rimraf@2.6.1 </tspan>
<tspan x="10" y="1594">  │ │ └─┬ glob@7.1.1 </tspan>
<tspan x="10" y="1610">  │ │   ├── fs.realpath@1.0.0 </tspan>
<tspan x="10" y="1626">  │ │   ├─┬ inflight@1.0.6 </tspan>
<tspan x="10" y="1642">  │ │   │ └── wrappy@1.0.2 </tspan>
<tspan x="10" y="1658">  │ │   ├── inherits@2.0.3 </tspan>
<tspan x="10" y="1674">  │ │   ├─┬ minimatch@3.0.3 </tspan>
<tspan x="10" y="1690">  │ │   │ └─┬ brace-expansion@1.1.7 </tspan>
<tspan x="10" y="1706">  │ │   │   ├── balanced-match@0.4.2 </tspan>
<tspan x="10" y="1722">  │ │   │   └── concat-map@0.0.1 </tspan>
<tspan x="10" y="1738">  │ │   ├─┬ once@1.4.0 </tspan>
<tspan x="10" y="1754">  │ │   │ └── wrappy@1.0.2 </tspan>
<tspan x="10" y="1770">  │ │   └── path-is-absolute@1.0.1 </tspan>
<tspan x="10" y="1786">  │ ├── semver@5.3.0 </tspan>
<tspan x="10" y="1802">  │ ├─┬ tar@2.2.1 </tspan>
<tspan x="10" y="1818">  │ │ ├── block-stream@0.0.9 </tspan>
<tspan x="10" y="1834">  │ │ ├─┬ fstream@1.0.11 </tspan>
<tspan x="10" y="1850">  │ │ │ └── graceful-fs@4.1.11 </tspan>
<tspan x="10" y="1866">  │ │ └── inherits@2.0.3 </tspan>
<tspan x="10" y="1882">  │ └─┬ tar-pack@3.4.0 </tspan>
<tspan x="10" y="1898">  │   ├─┬ debug@2.6.3 </tspan>
<tspan x="10" y="1914">  │   │ └── ms@0.7.2 </tspan>
<tspan x="10" y="1930">  │   ├─┬ fstream@1.0.11 </tspan>
<tspan x="10" y="1946">  │   │ ├── graceful-fs@4.1.11 </tspan>
<tspan x="10" y="1962">  │   │ └── inherits@2.0.3 </tspan>
<tspan x="10" y="1978">  │   ├─┬ fstream-ignore@1.0.5 </tspan>
<tspan x="10" y="1994">  │   │ ├── inherits@2.0.3 </tspan>
<tspan x="10" y="2010">  │   │ └─┬ minimatch@3.0.3 </tspan>
<tspan x="10" y="2026">  │   │   └─┬ brace-expansion@1.1.7 </tspan>
<tspan x="10" y="2042">  │   │     ├── balanced-match@0.4.2 </tspan>
<tspan x="10" y="2058">  │   │     └── concat-map@0.0.1 </tspan>
<tspan x="10" y="2074">  │   ├─┬ once@1.4.0 </tspan>
<tspan x="10" y="2090">  │   │ └── wrappy@1.0.2 </tspan>
<tspan x="10" y="2106">  │   ├─┬ readable-stream@2.2.9 </tspan>
<tspan x="10" y="2122">  │   │ ├── buffer-shims@1.0.0 </tspan>
<tspan x="10" y="2138">  │   │ ├── core-util-is@1.0.2 </tspan>
<tspan x="10" y="2154">  │   │ ├── inherits@2.0.3 </tspan>
<tspan x="10" y="2170">  │   │ ├── isarray@1.0.0 </tspan>
<tspan x="10" y="2186">  │   │ ├── process-nextick-args@1.0.7 </tspan>
<tspan x="10" y="2202">  │   │ ├── string_decoder@1.0.0 </tspan>
<tspan x="10" y="2218">  │   │ └── util-deprecate@1.0.2 </tspan>
<tspan x="10" y="2234">  │   └── uid-number@0.0.6 </tspan>
<tspan x="10" y="2250">  └─┬ protobufjs@5.0.2 </tspan>
<tspan x="10" y="2266">    ├─┬ ascli@1.0.1 </tspan>
<tspan x="10" y="2282">    │ ├── colour@0.7.1 </tspan>
<tspan x="10" y="2298">    │ └── optjs@3.2.2 </tspan>
<tspan x="10" y="2314">    ├─┬ bytebuffer@5.0.1 </tspan>
<tspan x="10" y="2330">    │ └── long@3.2.0 </tspan>
<tspan x="10" y="2346">    ├─┬ glob@7.1.1 </tspan>
<tspan x="10" y="2362">    │ ├── fs.realpath@1.0.0 </tspan>
<tspan x="10" y="2378">    │ ├─┬ inflight@1.0.6 </tspan>
<tspan x="10" y="2394">    │ │ └── wrappy@1.0.2 </tspan>
<tspan x="10" y="2410">    │ ├── inherits@2.0.3 </tspan>
<tspan x="10" y="2426">    │ ├─┬ minimatch@3.0.3 </tspan>
<tspan x="10" y="2442">    │ │ └─┬ brace-expansion@1.1.7 </tspan>
<tspan x="10" y="2458">    │ │   ├── balanced-match@0.4.2 </tspan>
<tspan x="10" y="2474">    │ │   └── concat-map@0.0.1 </tspan>
<tspan x="10" y="2490">    │ ├── once@1.4.0 </tspan>
<tspan x="10" y="2506">    │ └── path-is-absolute@1.0.1 </tspan>
<tspan x="10" y="2522">    └─┬ yargs@3.32.0 </tspan>
<tspan x="10" y="2538">      ├── camelcase@2.1.1 </tspan>
<tspan x="10" y="2554">      ├─┬ cliui@3.2.0 </tspan>
<tspan x="10" y="2570">      │ ├─┬ strip-ansi@3.0.1 </tspan>
<tspan x="10" y="2586">      │ │ └── ansi-regex@2.1.1 </tspan>
<tspan x="10" y="2602">      │ └── wrap-ansi@2.1.0 </tspan>
<tspan x="10" y="2618">      ├── decamelize@1.2.0 </tspan>
<tspan x="10" y="2634">      ├─┬ os-locale@1.4.0 </tspan>
<tspan x="10" y="2650">      │ └─┬ lcid@1.0.0 </tspan>
<tspan x="10" y="2666">      │   └── invert-kv@1.0.0 </tspan>
<tspan x="10" y="2682">      ├─┬ string-width@1.0.2 </tspan>
<tspan x="10" y="2698">      │ ├── code-point-at@1.1.0 </tspan>
<tspan x="10" y="2714">      │ └─┬ is-fullwidth-code-point@1.0.0 </tspan>
<tspan x="10" y="2730">      │   └── number-is-nan@1.0.1 </tspan>
<tspan x="10" y="2746">      ├── window-size@0.1.4 </tspan>
<tspan x="10" y="2762">      └── y18n@3.2.1</tspan>
</text>
</svg>
